P3
170 1
255
219 200 176
216 209 181
224 222 224
220 187 113
214 195 171
209 192 157
204 187 152
215 182 108
224 224 215
214 197 162
63 75 97
198 182 142
229 216 157
223 191 119
165 144 119
212 149 93
100 73 40
171 143 112
231 202 135
137 109 83
200 174 140
172 121 73
176 160 136
195 122 69
176 153 116
84 68 48
34 10 9
207 227 220
228 212 187
98 102 57
128 68 41
233 218 170
156 106 68
202 214 207
70 55 32
215 163 101
211 178 106
230 225 216
201 169 106
219 185 121
235 220 188
174 128 85
220 204 181
207 161 102
226 179 106
224 222 226
83 90 90
119 90 67
231 221 219
69 61 52
210 190 141
160 123 80
219 217 207
137 100 70
199 158 91
101 53 30
210 180 137
93 63 34
193 165 137
234 211 143
175 97 82
229 205 171
123 104 74
160 133 118
171 178 167
213 137 72
218 190 159
219 217 219
222 224 214
162 112 76
48 34 25
221 201 134
197 203 190
107 84 50
245 231 198
227 194 129
133 117 90
161 114 67
141 140 126
175 147 116
192 177 146
137 89 70
88 74 60
70 76 100
176 136 79
238 234 234
151 127 99
209 166 99
56 42 28
209 174 101
228 160 87
120 89 63
238 215 174
163 137 102
228 206 138
234 173 93
213 202 181
66 42 38
141 123 105
225 212 150
220 203 166
205 191 148
212 194 189
230 166 86
232 193 132
193 149 95
226 189 106
65 41 17
191 145 85
206 186 163
238 181 95
144 108 70
216 174 106
215 214 193
135 93 58
105 87 75
219 194 124
186 138 98
106 99 96
248 246 229
203 180 148
188 159 128
218 185 111
193 150 87
209 173 115
148 117 76
189 138 78
55 65 74
199 165 93
190 165 157
216 180 118
121 97 65
191 166 128
176 141 99
122 77 52
241 188 100
225 165 125
82 55 37
125 110 93
121 84 53
28 19 9
153 96 57
109 75 63
220 195 149
184 109 76
90 38 21
210 192 145
161 145 106
216 182 108
190 126 100
83 78 82
173 149 128
155 96 85
208 126 103
233 220 163
216 215 215
212 139 105
221 222 215
120 102 94
197 182 165
241 220 157
195 158 106
189 150 122
226 179 141
218 188 111
173 140 128
217 203 167
211 194 159
228 216 147
214 197 160
