P3
128 1
255
24 26 24
24 11 100
50 51 50
110 21 50
50 36 125
110 6 125
50 22 201
15 122 0
75 91 0
135 61 0
195 30 0
15 107 75
75 77 75
135 46 75
195 16 75
15 92 151
75 62 151
135 31 151
195 1 151
15 78 226
75 47 226
135 17 226
41 147 25
101 117 25
161 86 25
220 56 25
41 132 101
101 102 101
161 72 101
220 41 101
41 118 176
101 87 176
161 57 176
220 26 176
41 103 252
101 73 252
161 42 252
220 12 252
7 203 51
66 173 51
126 142 51
186 112 51
246 81 51
7 188 126
66 158 126
126 128 126
186 97 126
246 67 126
7 174 202
66 143 202
126 113 202
186 82 202
246 52 202
32 243 0
92 213 0
152 182 0
212 152 0
32 229 76
92 198 76
152 168 76
212 137 76
32 214 152
92 183 152
152 153 152
212 123 152
32 199 227
92 169 227
152 138 227
212 108 227
117 238 26
177 208 26
237 177 26
58 254 102
117 224 102
177 193 102
237 163 102
58 239 177
117 209 177
177 179 177
237 148 177
58 225 253
117 194 253
177 164 253
237 133 253
203 233 51
143 249 127
203 219 127
143 234 203
203 204 203
228 244 153
228 230 228
255 0 0
0 0 0
255 255 255
0 255 252
255 178 203
75 0 24
0 77 50
179 255 228
255 190 138
0 64 113
24 0 158
255 101 152
50 11 255
228 255 99
126 103 255
0 154 101
255 203 72
151 0 50
101 0 180
203 243 0
203 194 255
255 88 217
255 113 87
126 152 0
177 77 255
50 61 0
76 128 255
0 141 165
104 254 203
0 166 37
152 254 75
0 52 177
177 127 0
76 178 0
255 126 22
177 0 204
228 51 255
