P3
33 1
255
50 51 50
140 5 50
50 29 163
11 148 101
101 102 101
191 56 101
11 126 214
101 80 214
191 34 214
62 221 38
152 175 38
242 129 38
62 199 152
152 153 152
242 107 152
203 226 89
113 250 203
203 204 203
0 0 0
255 255 255
152 133 255
101 122 0
233 92 255
71 174 255
181 81 0
21 162 0
50 11 255
203 243 0
255 24 101
0 231 152
255 5 198
255 43 4
0 212 248
